<svg width="24" height="22" viewBox="0 0 24 22" fill="none" xmlns="http://www.w3.org/2000/svg">
<g filter="url(#filter0_d_6035_11)">
<path d="M5.11188 8.28891C5.4122 8.78945 4.73648 8.66432 4.4862 8.41404C3.86053 7.78836 3.86053 5.91134 4.36107 5.28567C4.7615 4.78513 5.23697 5.0354 5.11186 5.41081C4.48616 6.16163 4.73647 7.66323 5.11188 8.28891Z" fill="url(#paint0_linear_6035_11)"/>
<path d="M5.23621 5.53584L5.11109 5.41071C4.4854 6.16151 4.73568 7.66313 5.1111 8.28881H5.2362L5.23621 5.53584Z" fill="url(#paint1_linear_6035_11)"/>
<mask id="path-3-inside-1_6035_11" fill="white">
<path d="M5.23633 5.53656H7.23849L7.23849 8.28953H5.23633L5.23633 5.53656Z"/>
</mask>
<path d="M5.23633 5.53656H7.23849L7.23849 8.28953H5.23633L5.23633 5.53656Z" fill="url(#paint2_linear_6035_11)"/>
<path d="M7.23849 5.53656H6.23849L6.23849 8.28953H7.23849H8.23849V5.53656H7.23849Z" fill="#7D5641" fill-opacity="0.1" mask="url(#path-3-inside-1_6035_11)"/>
<path d="M16.8881 8.28891C16.5878 8.78945 17.2635 8.66432 17.5138 8.41404C18.1395 7.78836 18.1395 5.91134 17.6389 5.28567C17.2385 4.78513 16.763 5.0354 16.8881 5.41081C17.5138 6.16163 17.2635 7.66323 16.8881 8.28891Z" fill="url(#paint3_linear_6035_11)"/>
<path d="M16.7635 5.53639L16.8887 5.41125C17.5144 6.16206 17.2641 7.66368 16.8887 8.28936H16.7636L16.7635 5.53639Z" fill="url(#paint4_linear_6035_11)"/>
<mask id="path-7-inside-2_6035_11" fill="white">
<path d="M16.7634 5.53656H14.7613V8.28953H16.7634V5.53656Z"/>
</mask>
<path d="M16.7634 5.53656H14.7613V8.28953H16.7634V5.53656Z" fill="url(#paint5_linear_6035_11)"/>
<path d="M14.7613 5.53656H15.7613L15.7613 8.28953H14.7613H13.7613V5.53656H14.7613Z" fill="#7D5641" fill-opacity="0.1" mask="url(#path-7-inside-2_6035_11)"/>
<path d="M12.5389 1.11188C13.0394 1.4122 12.9143 0.736476 12.664 0.486204C12.0384 -0.139471 10.1613 -0.139471 9.53567 0.361069C9.03513 0.761501 9.2854 1.23697 9.66081 1.11186C10.4116 0.486158 11.9132 0.736474 12.5389 1.11188Z" fill="url(#paint6_linear_6035_11)"/>
<path d="M9.78627 1.23615L9.66113 1.11102C10.4119 0.485336 11.9136 0.735616 12.5392 1.11104V1.23614L9.78627 1.23615Z" fill="url(#paint7_linear_6035_11)"/>
<mask id="path-11-inside-3_6035_11" fill="white">
<path d="M9.78589 1.23627V3.23843H12.5389V1.23627H9.78589Z"/>
</mask>
<path d="M9.78589 1.23627V3.23843H12.5389V1.23627H9.78589Z" fill="url(#paint8_linear_6035_11)"/>
<path d="M9.78589 3.23843V2.23843H12.5389V3.23843L12.5389 4.23843H9.78589L9.78589 3.23843Z" fill="#7D5641" fill-opacity="0.1" mask="url(#path-11-inside-3_6035_11)"/>
<path d="M12.5389 12.6386C13.0394 12.3383 12.9143 13.014 12.664 13.2643C12.0384 13.89 10.1613 13.89 9.53567 13.3894C9.03513 12.989 9.2854 12.5135 9.66081 12.6386C10.4116 13.2643 11.9132 13.014 12.5389 12.6386Z" fill="url(#paint9_linear_6035_11)"/>
<path d="M9.78627 12.5138L9.66113 12.6389C10.4119 13.2646 11.9136 13.0143 12.5392 12.6389V12.5138L9.78627 12.5138Z" fill="url(#paint10_linear_6035_11)"/>
<mask id="path-15-inside-4_6035_11" fill="white">
<path d="M9.78589 12.5137V10.5115H12.5389V12.5137H9.78589Z"/>
</mask>
<path d="M9.78589 12.5137V10.5115H12.5389V12.5137H9.78589Z" fill="url(#paint11_linear_6035_11)"/>
<path d="M9.78589 10.5115V11.5115H12.5389V10.5115L12.5389 9.51151H9.78589L9.78589 10.5115Z" fill="#7D5641" fill-opacity="0.1" mask="url(#path-15-inside-4_6035_11)"/>
<g filter="url(#filter1_d_6035_11)">
<rect x="7.25342" y="3.25354" width="7.50809" height="7.25782" fill="#BE9975"/>
<rect x="7.75342" y="3.75354" width="6.50809" height="6.25782" stroke="#7D5641" stroke-opacity="0.1"/>
</g>
</g>
<defs>
<filter id="filter0_d_6035_11" x="0" y="0" width="22" height="21.7505" filterUnits="userSpaceOnUse" color-interpolation-filters="sRGB">
<feFlood flood-opacity="0" result="BackgroundImageFix"/>
<feColorMatrix in="SourceAlpha" type="matrix" values="0 0 0 0 0 0 0 0 0 0 0 0 0 0 0 0 0 0 127 0" result="hardAlpha"/>
<feOffset dy="4"/>
<feGaussianBlur stdDeviation="2"/>
<feComposite in2="hardAlpha" operator="out"/>
<feColorMatrix type="matrix" values="0 0 0 0 0 0 0 0 0 0 0 0 0 0 0 0 0 0 0.25 0"/>
<feBlend mode="normal" in2="BackgroundImageFix" result="effect1_dropShadow_6035_11"/>
<feBlend mode="normal" in="SourceGraphic" in2="effect1_dropShadow_6035_11" result="shape"/>
</filter>
<filter id="filter1_d_6035_11" x="2.25342" y="0.25354" width="21.5081" height="21.2578" filterUnits="userSpaceOnUse" color-interpolation-filters="sRGB">
<feFlood flood-opacity="0" result="BackgroundImageFix"/>
<feColorMatrix in="SourceAlpha" type="matrix" values="0 0 0 0 0 0 0 0 0 0 0 0 0 0 0 0 0 0 127 0" result="hardAlpha"/>
<feOffset dx="2" dy="4"/>
<feGaussianBlur stdDeviation="3.5"/>
<feComposite in2="hardAlpha" operator="out"/>
<feColorMatrix type="matrix" values="0 0 0 0 0 0 0 0 0 0 0 0 0 0 0 0 0 0 0.25 0"/>
<feBlend mode="normal" in2="BackgroundImageFix" result="effect1_dropShadow_6035_11"/>
<feBlend mode="normal" in="SourceGraphic" in2="effect1_dropShadow_6035_11" result="shape"/>
</filter>
<linearGradient id="paint0_linear_6035_11" x1="4.87594" y1="7.00753" x2="2.60916" y2="6.78729" gradientUnits="userSpaceOnUse">
<stop stop-color="#BC9875"/>
<stop offset="0.592214" stop-color="#7D5641"/>
</linearGradient>
<linearGradient id="paint1_linear_6035_11" x1="4.61053" y1="6.91232" x2="5.48647" y2="6.91232" gradientUnits="userSpaceOnUse">
<stop stop-color="#7D5641"/>
<stop offset="1" stop-color="#7D5641"/>
</linearGradient>
<linearGradient id="paint2_linear_6035_11" x1="6.73795" y1="6.91304" x2="5.11119" y2="6.91304" gradientUnits="userSpaceOnUse">
<stop stop-color="#BC9875"/>
<stop offset="1" stop-color="#7D5641"/>
</linearGradient>
<linearGradient id="paint3_linear_6035_11" x1="17.1241" y1="7.00753" x2="19.3908" y2="6.78729" gradientUnits="userSpaceOnUse">
<stop stop-color="#BC9875"/>
<stop offset="0.592214" stop-color="#7D5641"/>
</linearGradient>
<linearGradient id="paint4_linear_6035_11" x1="17.3892" y1="6.91287" x2="16.5133" y2="6.91287" gradientUnits="userSpaceOnUse">
<stop stop-color="#7D5641"/>
<stop offset="1" stop-color="#7D5641"/>
</linearGradient>
<linearGradient id="paint5_linear_6035_11" x1="15.2618" y1="6.91304" x2="16.8886" y2="6.91304" gradientUnits="userSpaceOnUse">
<stop stop-color="#BC9875"/>
<stop offset="1" stop-color="#7D5641"/>
</linearGradient>
<linearGradient id="paint6_linear_6035_11" x1="11.2575" y1="0.875944" x2="11.0373" y2="-1.39084" gradientUnits="userSpaceOnUse">
<stop stop-color="#BC9875"/>
<stop offset="0.592214" stop-color="#7D5641"/>
</linearGradient>
<linearGradient id="paint7_linear_6035_11" x1="11.1628" y1="0.610467" x2="11.1628" y2="1.48641" gradientUnits="userSpaceOnUse">
<stop stop-color="#7D5641"/>
<stop offset="1" stop-color="#7D5641"/>
</linearGradient>
<linearGradient id="paint8_linear_6035_11" x1="11.1624" y1="2.73789" x2="11.1624" y2="1.11113" gradientUnits="userSpaceOnUse">
<stop stop-color="#BC9875"/>
<stop offset="1" stop-color="#7D5641"/>
</linearGradient>
<linearGradient id="paint9_linear_6035_11" x1="11.2575" y1="12.8745" x2="11.0373" y2="15.1413" gradientUnits="userSpaceOnUse">
<stop stop-color="#BC9875"/>
<stop offset="0.592214" stop-color="#7D5641"/>
</linearGradient>
<linearGradient id="paint10_linear_6035_11" x1="11.1628" y1="13.1395" x2="11.1628" y2="12.2635" gradientUnits="userSpaceOnUse">
<stop stop-color="#7D5641"/>
<stop offset="1" stop-color="#7D5641"/>
</linearGradient>
<linearGradient id="paint11_linear_6035_11" x1="11.1624" y1="11.0121" x2="11.1624" y2="12.6388" gradientUnits="userSpaceOnUse">
<stop stop-color="#BC9875"/>
<stop offset="1" stop-color="#7D5641"/>
</linearGradient>
</defs>
</svg>
