<svg xmlns="http://www.w3.org/2000/svg" width="50" height="50" fill="none"><path fill="#E53612" d="M11.4578 22.9172C5.14096 22.9172 0 17.7769 0 11.4578 0 5.13876 5.14023 0 11.4578 0c6.3191 0 11.4594 5.14023 11.4594 11.4578 0 6.3177-5.141 11.4594-11.4594 11.4594Zm0-20.83362c-5.16885 0-9.37422 4.20537-9.37422 9.37502 0 5.1696 4.20537 9.375 9.37502 9.375 5.1696 0 9.375-4.2054 9.375-9.375 0-5.16965-4.2061-9.37502-9.3758-9.37502Z"/><path fill="#1A2242" d="M38.5422 32.2914a6.21052 6.21052 0 0 0-4.1268 1.5618 6.24037 6.24037 0 0 1-4.1348 1.5632h-7.5053a1.56226 1.56226 0 0 1-.8683-.2633 1.56206 1.56206 0 0 1-.5756-.7014 1.56218 1.56218 0 0 1 .3393-1.7031L34.91 19.5107a6.24775 6.24775 0 0 1 4.0298-1.8183c1.5173-.092 2.9482-.7374 4.0216-1.8138a6.24985 6.24985 0 0 0 1.7103-3.2001 6.24948 6.24948 0 0 0-.3556-3.61091 6.25014 6.25014 0 0 0-2.3018-2.80485 6.25028 6.25028 0 0 0-3.4721-1.05343 6.21061 6.21061 0 0 0-4.1268 1.56103 6.24032 6.24032 0 0 1-4.1348 1.56397H19.7201a6.24707 6.24707 0 0 1-4.1355-1.56397 6.21053 6.21053 0 0 0-4.126-1.56103c-1.65763 0-3.24734.65848-4.41944 1.83059-1.1721 1.1721-1.83058 2.76181-1.83058 4.4194 0 1.6576.65848 3.2473 1.83058 4.4194 1.1721 1.1721 2.76181 1.8306 4.41944 1.8306a6.21018 6.21018 0 0 0 4.126-1.5618 6.24095 6.24095 0 0 1 4.1355-1.5632h7.5053c.309.0001.611.0918.8679.2635.2568.1717.457.4157.5753.7011.1182.2855.1491.5996.0889.9026-.0603.3031-.209.5814-.4274.7999L15.0907 30.4901a6.2469 6.2469 0 0 1-4.0297 1.8182c-1.51739.0921-2.9483.7374-4.02167 1.8139a6.25022 6.25022 0 0 0-1.71033 3.2 6.24979 6.24979 0 0 0 .35566 3.6109 6.25027 6.25027 0 0 0 2.30179 2.8049 6.24914 6.24914 0 0 0 3.47215 1.0534c1.52.0022 2.988-.5533 4.126-1.561 1.1414-1.0086 2.6123-1.5648 4.1355-1.564h10.5605c1.5228 0 2.9932.5561 4.1348 1.564a6.21063 6.21063 0 0 0 4.1268 1.561c1.6576 0 3.2473-.6585 4.4194-1.8306 1.1721-1.1721 1.8306-2.7618 1.8306-4.4194 0-1.6576-.6585-3.2473-1.8306-4.4194-1.1721-1.1721-2.7618-1.8306-4.4194-1.8306Z"/><path fill="#E53612" d="M38.5422 13.5422c1.1507 0 2.0835-.9329 2.0835-2.0836 0-1.1508-.9328-2.0836-2.0835-2.0836-1.1508 0-2.0836.9328-2.0836 2.0836 0 1.1507.9328 2.0836 2.0836 2.0836ZM38.5422 40.6257c1.1507 0 2.0835-.9328 2.0835-2.0835 0-1.1508-.9328-2.0836-2.0835-2.0836-1.1508 0-2.0836.9328-2.0836 2.0836 0 1.1507.9328 2.0835 2.0836 2.0835ZM11.4586 40.6257c1.1507 0 2.0836-.9328 2.0836-2.0835 0-1.1508-.9329-2.0836-2.0836-2.0836-1.1508 0-2.0836.9328-2.0836 2.0836 0 1.1507.9328 2.0835 2.0836 2.0835ZM11.4586 13.5414a2.08565 2.08565 0 0 1-1.47196-.6109 2.0857 2.0857 0 0 1-.6109-1.4719c0-1.1487.93336-2.0836 2.08286-2.0836 1.1494 0 2.0836.9349 2.0836 2.0836a2.08597 2.08597 0 0 1-.6112 1.4722c-.3906.3904-.9201.61-1.4724.6106Z"/></svg>